<svg width="50" height="50" viewBox="0 0 50 50" fill="none" xmlns="http://www.w3.org/2000/svg">
<g id="slideshow-fill">
<path id="Vector" d="M27.0833 43.75V47.9167H22.9166V43.75H6.24996C5.09938 43.75 4.16663 42.8173 4.16663 41.6667V12.5H45.8333V41.6667C45.8333 42.8173 44.9006 43.75 43.75 43.75H27.0833ZM16.6666 20.8333C13.2149 20.8333 10.4166 23.6315 10.4166 27.0833C10.4166 30.5352 13.2149 33.3333 16.6666 33.3333C20.1184 33.3333 22.9166 30.5352 22.9166 27.0833H16.6666V20.8333ZM27.0833 20.8333V25H39.5833V20.8333H27.0833ZM27.0833 29.1667V33.3333H39.5833V29.1667H27.0833ZM4.16663 6.25H45.8333V10.4167H4.16663V6.25Z" fill="#262256"/>
</g>
</svg>
