<svg width="50" height="50" viewBox="0 0 50 50" fill="none" xmlns="http://www.w3.org/2000/svg">
<g id="global-fill">
<path id="Vector" d="M4.26941 27.0836H15.6818C16.0547 33.8936 18.2446 40.2196 21.775 45.5855C12.4742 44.14 5.20853 36.5423 4.26941 27.0836ZM4.26941 22.9169C5.20853 13.458 12.4742 5.86021 21.775 4.41492C18.2446 9.78063 16.0547 16.1068 15.6818 22.9169H4.26941ZM45.7304 22.9169H34.3179C33.945 16.1068 31.7552 9.78063 28.2248 4.41492C37.5256 5.86021 44.7912 13.458 45.7304 22.9169ZM45.7304 27.0836C44.7912 36.5423 37.5256 44.14 28.2248 45.5855C31.7552 40.2196 33.945 33.8936 34.3179 27.0836H45.7304ZM19.8556 27.0836H30.1442C29.7867 32.8811 27.9471 38.2777 24.9998 42.8992C22.0525 38.2777 20.2131 32.8811 19.8556 27.0836ZM19.8556 22.9169C20.2131 17.1193 22.0525 11.7226 24.9998 7.10115C27.9471 11.7226 29.7867 17.1193 30.1442 22.9169H19.8556Z" fill="#262256"/>
</g>
</svg>
