<svg width="45" height="45" viewBox="0 0 45 45" fill="none" xmlns="http://www.w3.org/2000/svg">
<path id="Vector" d="M37.8855 0C39.1164 0 40.1141 1.1193 40.1141 2.5V6.8925L35.657 11.8925V5H4.45712V25.25L13.3714 15.2513L23.0166 26.0725L20.0597 29.3905L20.0459 39.9875L29.5093 40.003L32.4724 36.6775L35.433 40H35.657V33.105L40.1141 28.105V42.5C40.1141 43.8807 39.1164 45 37.8855 45H2.22856C0.997771 45 0 43.8807 0 42.5V2.5C0 1.1193 0.997771 0 2.22856 0H37.8855ZM41.8484 12.019L45 15.5546L27.6658 35L24.5095 34.9948L24.5142 31.4645L41.8484 12.019ZM27.857 10C29.7032 10 31.1999 11.6789 31.1999 13.75C31.1999 15.8211 29.7032 17.5 27.857 17.5C26.0109 17.5 24.5142 15.8211 24.5142 13.75C24.5142 11.6789 26.0109 10 27.857 10Z" fill="#262256"/>
</svg>
