<svg width="142" height="71" viewBox="0 0 142 71" fill="none" xmlns="http://www.w3.org/2000/svg">
<path id="Ellipse 6" d="M140.591 35.5V35.6002L140.629 35.6927C141.539 37.8696 141.701 39.6994 141.277 41.2846C140.851 42.8719 139.818 44.2806 138.211 45.5799C134.972 48.198 129.534 50.2689 122.585 52.3969C119.598 53.3119 116.341 54.2343 112.882 55.2142C100.356 58.7624 85.1665 63.0649 70.4264 70.4999C51.0544 70.4838 33.544 66.5249 20.887 60.1557C8.17516 53.7588 0.5 45.0133 0.5 35.5C0.5 33.1003 0.898747 31.3568 1.6401 30.048C2.37648 28.748 3.47761 27.83 4.97416 27.1265C6.48215 26.4176 8.37561 25.9341 10.6733 25.5034C12.109 25.2342 13.6786 24.9896 15.3934 24.7223C16.4277 24.5611 17.5148 24.3916 18.6572 24.2036C30.7586 22.2118 48.4359 18.2263 70.7201 0.500107C90.07 0.523782 107.559 4.48119 120.204 10.8443C132.916 17.2412 140.591 25.9867 140.591 35.5Z" stroke="#5600C6" stroke-opacity="0.24"/>
</svg>
