<svg width="40" height="41" viewBox="0 0 40 41" fill="none" xmlns="http://www.w3.org/2000/svg">
<g id="facebook-box-line">
<path id="Vector" d="M23.3333 32.1667H31.6667V8.83333H8.33333V32.1667H20V23.8333H16.6667V20.5H20V17.7433C20 15.515 20.2333 14.7067 20.6667 13.8917C21.0935 13.0853 21.7533 12.4261 22.56 12C23.1967 11.6583 23.9883 11.4533 25.3717 11.365C25.92 11.33 26.63 11.3733 27.5017 11.4983V14.665H26.6667C25.1383 14.665 24.5067 14.7367 24.13 14.9383C23.9052 15.0539 23.7223 15.2369 23.6067 15.4617C23.4067 15.8383 23.3333 16.2117 23.3333 17.7417V20.5H27.5L26.6667 23.8333H23.3333V32.1667ZM6.66667 5.5H33.3333C33.7754 5.5 34.1993 5.67559 34.5118 5.98816C34.8244 6.30072 35 6.72464 35 7.16667V33.8333C35 34.2754 34.8244 34.6993 34.5118 35.0118C34.1993 35.3244 33.7754 35.5 33.3333 35.5H6.66667C6.22464 35.5 5.80072 35.3244 5.48816 35.0118C5.17559 34.6993 5 34.2754 5 33.8333V7.16667C5 6.72464 5.17559 6.30072 5.48816 5.98816C5.80072 5.67559 6.22464 5.5 6.66667 5.5V5.5Z" fill="#FC9536" fill-opacity="0.8"/>
</g>
</svg>
