<svg width="45" height="45" viewBox="0 0 45 45" fill="none" xmlns="http://www.w3.org/2000/svg">
<g id="instagram-line">
<path id="Vector" d="M22.5 16.875C21.0082 16.875 19.5774 17.4676 18.5225 18.5225C17.4676 19.5774 16.875 21.0082 16.875 22.5C16.875 23.9918 17.4676 25.4226 18.5225 26.4775C19.5774 27.5324 21.0082 28.125 22.5 28.125C23.9918 28.125 25.4226 27.5324 26.4775 26.4775C27.5324 25.4226 28.125 23.9918 28.125 22.5C28.125 21.0082 27.5324 19.5774 26.4775 18.5225C25.4226 17.4676 23.9918 16.875 22.5 16.875ZM22.5 13.125C24.9864 13.125 27.371 14.1127 29.1291 15.8709C30.8873 17.629 31.875 20.0136 31.875 22.5C31.875 24.9864 30.8873 27.371 29.1291 29.1291C27.371 30.8873 24.9864 31.875 22.5 31.875C20.0136 31.875 17.629 30.8873 15.8709 29.1291C14.1127 27.371 13.125 24.9864 13.125 22.5C13.125 20.0136 14.1127 17.629 15.8709 15.8709C17.629 14.1127 20.0136 13.125 22.5 13.125V13.125ZM34.6875 12.6562C34.6875 13.2779 34.4406 13.874 34.001 14.3135C33.5615 14.7531 32.9654 15 32.3438 15C31.7221 15 31.126 14.7531 30.6865 14.3135C30.2469 13.874 30 13.2779 30 12.6562C30 12.0346 30.2469 11.4385 30.6865 10.999C31.126 10.5594 31.7221 10.3125 32.3438 10.3125C32.9654 10.3125 33.5615 10.5594 34.001 10.999C34.4406 11.4385 34.6875 12.0346 34.6875 12.6562V12.6562ZM22.5 7.5C17.8613 7.5 17.1038 7.51313 14.9456 7.60875C13.4756 7.67813 12.4894 7.875 11.5744 8.23125C10.7606 8.54625 10.1737 8.92312 9.54937 9.54937C8.96251 10.1164 8.51129 10.8086 8.22937 11.5744C7.87312 12.4931 7.67625 13.4775 7.60875 14.9456C7.51125 17.0156 7.5 17.7394 7.5 22.5C7.5 27.1387 7.51313 27.8962 7.60875 30.0544C7.67813 31.5225 7.875 32.5106 8.22937 33.4238C8.54812 34.2394 8.92313 34.8263 9.54563 35.4488C10.1775 36.0788 10.7644 36.4556 11.5706 36.7669C12.4969 37.125 13.4831 37.3237 14.9456 37.3912C17.0156 37.4887 17.7394 37.5 22.5 37.5C27.1387 37.5 27.8962 37.4869 30.0544 37.3912C31.5206 37.3219 32.5088 37.125 33.4238 36.7706C34.2356 36.4538 34.8263 36.0769 35.4488 35.4544C36.0806 34.8225 36.4575 34.2356 36.7688 33.4294C37.125 32.505 37.3237 31.5169 37.3912 30.0544C37.4887 27.9844 37.5 27.2606 37.5 22.5C37.5 17.8613 37.4869 17.1038 37.3912 14.9456C37.3219 13.4794 37.125 12.4894 36.7688 11.5744C36.4862 10.8094 36.0358 10.1174 35.4506 9.54937C34.8839 8.96221 34.1916 8.51094 33.4256 8.22937C32.5069 7.87312 31.5206 7.67625 30.0544 7.60875C27.9844 7.51125 27.2606 7.5 22.5 7.5ZM22.5 3.75C27.5944 3.75 28.23 3.76875 30.2287 3.8625C32.2256 3.95625 33.585 4.26938 34.7812 4.73438C36.0187 5.21063 37.0613 5.85562 38.1038 6.89625C39.0572 7.83355 39.7949 8.96735 40.2656 10.2187C40.7288 11.4131 41.0438 12.7744 41.1375 14.7712C41.2256 16.77 41.25 17.4056 41.25 22.5C41.25 27.5944 41.2313 28.23 41.1375 30.2287C41.0438 32.2256 40.7288 33.585 40.2656 34.7812C39.7963 36.0333 39.0584 37.1674 38.1038 38.1038C37.1662 39.0568 36.0325 39.7945 34.7812 40.2656C33.5869 40.7288 32.2256 41.0438 30.2287 41.1375C28.23 41.2256 27.5944 41.25 22.5 41.25C17.4056 41.25 16.77 41.2313 14.7712 41.1375C12.7744 41.0438 11.415 40.7288 10.2187 40.2656C8.96686 39.7959 7.83286 39.058 6.89625 38.1038C5.94264 37.1666 5.20487 36.0328 4.73438 34.7812C4.26938 33.5869 3.95625 32.2256 3.8625 30.2287C3.77437 28.23 3.75 27.5944 3.75 22.5C3.75 17.4056 3.76875 16.77 3.8625 14.7712C3.95625 12.7725 4.26938 11.415 4.73438 10.2187C5.20357 8.96659 5.94151 7.83248 6.89625 6.89625C7.83313 5.94231 8.96705 5.20449 10.2187 4.73438C11.415 4.26938 12.7725 3.95625 14.7712 3.8625C16.77 3.77437 17.4056 3.75 22.5 3.75Z" fill="#FC9536" fill-opacity="0.8"/>
</g>
</svg>
