<svg width="40" height="41" viewBox="0 0 40 41" fill="none" xmlns="http://www.w3.org/2000/svg">
<g id="linkedin-box-line">
<path id="Vector" d="M6.66667 5.5H33.3333C33.7754 5.5 34.1993 5.67559 34.5118 5.98816C34.8244 6.30072 35 6.72464 35 7.16667V33.8333C35 34.2754 34.8244 34.6993 34.5118 35.0118C34.1993 35.3244 33.7754 35.5 33.3333 35.5H6.66667C6.22464 35.5 5.80072 35.3244 5.48816 35.0118C5.17559 34.6993 5 34.2754 5 33.8333V7.16667C5 6.72464 5.17559 6.30072 5.48816 5.98816C5.80072 5.67559 6.22464 5.5 6.66667 5.5V5.5ZM8.33333 8.83333V32.1667H31.6667V8.83333H8.33333ZM12.5 15.5C11.837 15.5 11.2011 15.2366 10.7322 14.7678C10.2634 14.2989 10 13.663 10 13C10 12.337 10.2634 11.7011 10.7322 11.2322C11.2011 10.7634 11.837 10.5 12.5 10.5C13.163 10.5 13.7989 10.7634 14.2678 11.2322C14.7366 11.7011 15 12.337 15 13C15 13.663 14.7366 14.2989 14.2678 14.7678C13.7989 15.2366 13.163 15.5 12.5 15.5V15.5ZM10.8333 17.1667H14.1667V29.6667H10.8333V17.1667ZM20 17.8833C20.9733 16.9417 22.11 16.3333 23.3333 16.3333C26.785 16.3333 29.1667 19.1317 29.1667 22.5833V29.6667H25.8333V22.5833C25.8333 21.8098 25.526 21.0679 24.9791 20.5209C24.4321 19.974 23.6902 19.6667 22.9167 19.6667C22.1431 19.6667 21.4013 19.974 20.8543 20.5209C20.3073 21.0679 20 21.8098 20 22.5833V29.6667H16.6667V17.1667H20V17.8833Z" fill="#FC9536" fill-opacity="0.8"/>
</g>
</svg>
