<svg width="40" height="41" viewBox="0 0 40 41" fill="none" xmlns="http://www.w3.org/2000/svg">
<g id="twitter-line">
<path id="Vector" d="M27.8119 9.75003C26.4188 9.74982 25.0813 10.2469 24.0872 11.1343C23.0931 12.0217 22.5218 13.2285 22.4964 14.495L22.445 17.12C22.442 17.261 22.4063 17.3997 22.3402 17.5272C22.274 17.6547 22.179 17.7681 22.0613 17.8598C21.9436 17.9516 21.8059 18.0197 21.6572 18.0596C21.5086 18.0996 21.3523 18.1105 21.1987 18.0917L18.3375 17.7384C14.5726 17.2717 10.9654 15.695 7.50486 13.0734C6.40877 18.59 8.54963 22.4117 13.7057 25.36L16.9078 27.19C17.0599 27.277 17.1863 27.3965 17.2759 27.5381C17.3655 27.6798 17.4156 27.8392 17.4217 28.0025C17.4279 28.1658 17.3899 28.328 17.3112 28.4748C17.2325 28.6217 17.1153 28.7488 16.9701 28.845L14.0521 30.7834C15.7879 30.8817 17.4357 30.8117 18.803 30.565C27.4508 28.995 33.2007 23.0784 33.2007 13.3184C33.2007 12.5217 31.3457 9.75003 27.8119 9.75003V9.75003ZM18.8305 14.4334C18.8625 12.8268 19.415 11.2645 20.4189 9.94206C21.4227 8.61965 22.8333 7.59589 24.4739 6.99897C26.1146 6.40205 27.9125 6.25849 29.6425 6.58627C31.3725 6.91405 32.9577 7.6986 34.1996 8.84169C35.5028 8.83336 36.6117 9.13336 39.0917 7.76669C38.4776 10.5 38.1752 11.6867 36.8665 13.3184C36.8665 26.055 28.2573 32.2484 19.5215 33.8334C13.5315 34.92 4.82146 33.135 2.32501 30.765C3.59706 30.675 8.76591 30.17 11.7536 28.1817C9.22598 26.6667 -0.834952 21.2834 5.77641 6.81003C8.87956 10.105 12.0267 12.3484 15.216 13.5384C17.3385 14.33 17.8591 14.3134 18.8323 14.435L18.8305 14.4334Z" fill="#FC9536" fill-opacity="0.8"/>
</g>
</svg>
